<?xml version="1.0" encoding="utf-8" standalone="no"?>
<!DOCTYPE svg PUBLIC "-//W3C//DTD SVG 1.1//EN"
  "http://www.w3.org/Graphics/SVG/1.1/DTD/svg11.dtd">
<svg xmlns:xlink="http://www.w3.org/1999/xlink" width="959.976pt" height="540pt" viewBox="0 0 959.976 540" xmlns="http://www.w3.org/2000/svg" version="1.1">
 <metadata>
  <rdf:RDF xmlns:dc="http://purl.org/dc/elements/1.1/" xmlns:cc="http://creativecommons.org/ns#" xmlns:rdf="http://www.w3.org/1999/02/22-rdf-syntax-ns#">
   <cc:Work>
    <dc:type rdf:resource="http://purl.org/dc/dcmitype/StillImage"/>
    <dc:date>2026-09-21T14:55:55.069612</dc:date>
    <dc:format>image/svg+xml</dc:format>
    <dc:creator>
     <cc:Agent>
      <dc:title>Matplotlib v3.9.2, https://matplotlib.org/</dc:title>
     </cc:Agent>
    </dc:creator>
   </cc:Work>
  </rdf:RDF>
 </metadata>
 <defs>
  <style type="text/css">*{stroke-linejoin: round; stroke-linecap: butt}</style>
 </defs>
 <g id="figure_1">
  <g id="patch_1">
   <path d="M 0 540 
L 959.976 540 
L 959.976 0 
L 0 0 
z
" style="fill: #fcfcfb"/>
  </g>
  <g id="axes_1">
   <g id="patch_2">
    <path d="M 287.9928 464.4 
L 652.78368 464.4 
L 652.78368 108 
L 287.9928 108 
z
" style="fill: #fcfcfb"/>
   </g>
   <g id="matplotlib.axis_1">
    <g id="xtick_1">
     <g id="line2d_1">
      <path d="M 348.720709 464.4 
L 348.720709 108 
" clip-path="url(#p709938adb2)" style="fill: none; stroke: #e1e0d9; stroke-linecap: round"/>
     </g>
     <g id="line2d_2">
      <defs>
       <path id="m3fa08acb91" d="M 0 0 
L 0 3.5 
" style="stroke: #c3c2b7; stroke-width: 0.8"/>
      </defs>
      <g>
       <use xlink:href="#m3fa08acb91" x="348.720709" y="464.4" style="fill: #c3c2b7; stroke: #c3c2b7; stroke-width: 0.8"/>
      </g>
     </g>
     <g id="text_1">
      <!-- −3 -->
      <g style="fill: #52514e" transform="translate(334.043209 489.1675) scale(0.24 -0.24)">
       <defs>
        <path id="SegoeUI-2212" d="M 3663 1656 
L 725 1656 
L 725 2075 
L 3663 2075 
L 3663 1656 
z
" transform="scale(0.015625)"/>
        <path id="SegoeUI-33" d="M 2978 1269 
Q 2978 966 2864 717 
Q 2750 469 2542 292 
Q 2334 116 2043 19 
Q 1753 -78 1403 -78 
Q 763 -78 384 166 
L 384 716 
Q 838 359 1422 359 
Q 1656 359 1845 418 
Q 2034 478 2170 590 
Q 2306 703 2379 862 
Q 2453 1022 2453 1222 
Q 2453 2100 1203 2100 
L 831 2100 
L 831 2534 
L 1184 2534 
Q 2291 2534 2291 3359 
Q 2291 4122 1447 4122 
Q 972 4122 556 3803 
L 556 4300 
Q 984 4556 1575 4556 
Q 1856 4556 2084 4478 
Q 2313 4400 2475 4259 
Q 2638 4119 2727 3922 
Q 2816 3725 2816 3488 
Q 2816 2603 1922 2350 
L 1922 2338 
Q 2150 2313 2344 2227 
Q 2538 2141 2678 2003 
Q 2819 1866 2898 1680 
Q 2978 1494 2978 1269 
z
" transform="scale(0.015625)"/>
       </defs>
       <use xlink:href="#SegoeUI-2212"/>
       <use xlink:href="#SegoeUI-33" x="68.408203"/>
      </g>
     </g>
    </g>
    <g id="xtick_2">
     <g id="line2d_3">
      <path d="M 424.748429 464.4 
L 424.748429 108 
" clip-path="url(#p709938adb2)" style="fill: none; stroke: #e1e0d9; stroke-linecap: round"/>
     </g>
     <g id="line2d_4">
      <g>
       <use xlink:href="#m3fa08acb91" x="424.748429" y="464.4" style="fill: #c3c2b7; stroke: #c3c2b7; stroke-width: 0.8"/>
      </g>
     </g>
     <g id="text_2">
      <!-- −2 -->
      <g style="fill: #52514e" transform="translate(410.070929 489.1675) scale(0.24 -0.24)">
       <defs>
        <path id="SegoeUI-32" d="M 2413 3306 
Q 2413 3513 2348 3666 
Q 2284 3819 2173 3920 
Q 2063 4022 1913 4072 
Q 1763 4122 1588 4122 
Q 1438 4122 1294 4081 
Q 1150 4041 1014 3969 
Q 878 3897 751 3797 
Q 625 3697 516 3575 
L 516 4125 
Q 731 4334 998 4445 
Q 1266 4556 1650 4556 
Q 1925 4556 2159 4476 
Q 2394 4397 2566 4244 
Q 2738 4091 2836 3866 
Q 2934 3641 2934 3350 
Q 2934 3084 2873 2868 
Q 2813 2653 2689 2462 
Q 2566 2272 2378 2097 
Q 2191 1922 1938 1741 
Q 1622 1516 1417 1356 
Q 1213 1197 1092 1058 
Q 972 919 923 780 
Q 875 641 875 459 
L 3106 459 
L 3106 0 
L 341 0 
L 341 222 
Q 341 509 403 728 
Q 466 947 609 1144 
Q 753 1341 986 1537 
Q 1219 1734 1556 1981 
Q 1800 2156 1964 2315 
Q 2128 2475 2228 2634 
Q 2328 2794 2370 2958 
Q 2413 3122 2413 3306 
z
" transform="scale(0.015625)"/>
       </defs>
       <use xlink:href="#SegoeUI-2212"/>
       <use xlink:href="#SegoeUI-32" x="68.408203"/>
      </g>
     </g>
    </g>
    <g id="xtick_3">
     <g id="line2d_5">
      <path d="M 500.77615 464.4 
L 500.77615 108 
" clip-path="url(#p709938adb2)" style="fill: none; stroke: #e1e0d9; stroke-linecap: round"/>
     </g>
     <g id="line2d_6">
      <g>
       <use xlink:href="#m3fa08acb91" x="500.77615" y="464.4" style="fill: #c3c2b7; stroke: #c3c2b7; stroke-width: 0.8"/>
      </g>
     </g>
     <g id="text_3">
      <!-- −1 -->
      <g style="fill: #52514e" transform="translate(486.09865 489.1675) scale(0.24 -0.24)">
       <defs>
        <path id="SegoeUI-31" d="M 2263 0 
L 1750 0 
L 1750 3872 
Q 1691 3813 1577 3736 
Q 1463 3659 1320 3584 
Q 1178 3509 1020 3443 
Q 863 3378 713 3341 
L 713 3859 
Q 881 3906 1070 3986 
Q 1259 4066 1442 4164 
Q 1625 4263 1787 4370 
Q 1950 4478 2069 4581 
L 2263 4581 
L 2263 0 
z
" transform="scale(0.015625)"/>
       </defs>
       <use xlink:href="#SegoeUI-2212"/>
       <use xlink:href="#SegoeUI-31" x="68.408203"/>
      </g>
     </g>
    </g>
    <g id="xtick_4">
     <g id="line2d_7">
      <path d="M 576.80387 464.4 
L 576.80387 108 
" clip-path="url(#p709938adb2)" style="fill: none; stroke: #e1e0d9; stroke-linecap: round"/>
     </g>
     <g id="line2d_8">
      <g>
       <use xlink:href="#m3fa08acb91" x="576.80387" y="464.4" style="fill: #c3c2b7; stroke: #c3c2b7; stroke-width: 0.8"/>
      </g>
     </g>
     <g id="text_4">
      <!-- 0 -->
      <g style="fill: #52514e" transform="translate(570.33512 489.1675) scale(0.24 -0.24)">
       <defs>
        <path id="SegoeUI-30" d="M 3188 2259 
Q 3188 1697 3086 1262 
Q 2984 828 2792 529 
Q 2600 231 2320 76 
Q 2041 -78 1684 -78 
Q 1347 -78 1083 70 
Q 819 219 637 503 
Q 456 788 362 1202 
Q 269 1616 269 2150 
Q 269 2738 367 3188 
Q 466 3638 656 3942 
Q 847 4247 1130 4401 
Q 1413 4556 1778 4556 
Q 3188 4556 3188 2259 
z
M 2663 2209 
Q 2663 4122 1753 4122 
Q 794 4122 794 2175 
Q 794 359 1734 359 
Q 2663 359 2663 2209 
z
" transform="scale(0.015625)"/>
       </defs>
       <use xlink:href="#SegoeUI-30"/>
      </g>
     </g>
    </g>
    <g id="text_5">
     <!-- Gain over the curve (pp) -->
     <g style="fill: #52514e" transform="translate(342.631365 516.455) scale(0.24 -0.24)">
      <defs>
       <path id="SegoeUI-47" d="M 3938 306 
Q 3263 -75 2438 -75 
Q 1478 -75 886 544 
Q 294 1163 294 2181 
Q 294 3222 951 3889 
Q 1609 4556 2619 4556 
Q 3350 4556 3847 4319 
L 3847 3738 
Q 3303 4081 2559 4081 
Q 1806 4081 1325 3562 
Q 844 3044 844 2219 
Q 844 1369 1291 883 
Q 1738 397 2503 397 
Q 3028 397 3413 606 
L 3413 1863 
L 2431 1863 
L 2431 2338 
L 3938 2338 
L 3938 306 
z
" transform="scale(0.015625)"/>
       <path id="SegoeUI-61" d="M 2809 0 
L 2297 0 
L 2297 500 
L 2284 500 
Q 1950 -75 1300 -75 
Q 822 -75 551 178 
Q 281 431 281 850 
Q 281 1747 1338 1894 
L 2297 2028 
Q 2297 2844 1638 2844 
Q 1059 2844 594 2450 
L 594 2975 
Q 1066 3275 1681 3275 
Q 2809 3275 2809 2081 
L 2809 0 
z
M 2297 1619 
L 1525 1513 
Q 1169 1463 987 1336 
Q 806 1209 806 888 
Q 806 653 973 504 
Q 1141 356 1419 356 
Q 1800 356 2048 623 
Q 2297 891 2297 1300 
L 2297 1619 
z
" transform="scale(0.015625)"/>
       <path id="SegoeUI-69" d="M 781 4013 
Q 644 4013 547 4106 
Q 450 4200 450 4344 
Q 450 4488 547 4583 
Q 644 4678 781 4678 
Q 922 4678 1020 4583 
Q 1119 4488 1119 4344 
Q 1119 4206 1020 4109 
Q 922 4013 781 4013 
z
M 1031 0 
L 519 0 
L 519 3200 
L 1031 3200 
L 1031 0 
z
" transform="scale(0.015625)"/>
       <path id="SegoeUI-6e" d="M 3175 0 
L 2663 0 
L 2663 1825 
Q 2663 2844 1919 2844 
Q 1534 2844 1282 2555 
Q 1031 2266 1031 1825 
L 1031 0 
L 519 0 
L 519 3200 
L 1031 3200 
L 1031 2669 
L 1044 2669 
Q 1406 3275 2094 3275 
Q 2619 3275 2897 2936 
Q 3175 2597 3175 1956 
L 3175 0 
z
" transform="scale(0.015625)"/>
       <path id="SegoeUI-20" transform="scale(0.015625)"/>
       <path id="SegoeUI-6f" d="M 1856 -75 
Q 1147 -75 723 373 
Q 300 822 300 1563 
Q 300 2369 740 2822 
Q 1181 3275 1931 3275 
Q 2647 3275 3048 2834 
Q 3450 2394 3450 1613 
Q 3450 847 3017 386 
Q 2584 -75 1856 -75 
z
M 1894 2844 
Q 1400 2844 1112 2508 
Q 825 2172 825 1581 
Q 825 1013 1115 684 
Q 1406 356 1894 356 
Q 2391 356 2658 678 
Q 2925 1000 2925 1594 
Q 2925 2194 2658 2519 
Q 2391 2844 1894 2844 
z
" transform="scale(0.015625)"/>
       <path id="SegoeUI-76" d="M 3034 3200 
L 1759 0 
L 1256 0 
L 44 3200 
L 606 3200 
L 1419 875 
Q 1509 619 1531 428 
L 1544 428 
Q 1575 669 1644 863 
L 2494 3200 
L 3034 3200 
z
" transform="scale(0.015625)"/>
       <path id="SegoeUI-65" d="M 3091 1472 
L 831 1472 
Q 844 938 1119 647 
Q 1394 356 1875 356 
Q 2416 356 2869 713 
L 2869 231 
Q 2447 -75 1753 -75 
Q 1075 -75 687 361 
Q 300 797 300 1588 
Q 300 2334 723 2804 
Q 1147 3275 1775 3275 
Q 2403 3275 2747 2869 
Q 3091 2463 3091 1741 
L 3091 1472 
z
M 2566 1906 
Q 2563 2350 2352 2597 
Q 2141 2844 1766 2844 
Q 1403 2844 1150 2584 
Q 897 2325 838 1906 
L 2566 1906 
z
" transform="scale(0.015625)"/>
       <path id="SegoeUI-72" d="M 2188 2681 
Q 2053 2784 1800 2784 
Q 1472 2784 1251 2475 
Q 1031 2166 1031 1631 
L 1031 0 
L 519 0 
L 519 3200 
L 1031 3200 
L 1031 2541 
L 1044 2541 
Q 1153 2878 1378 3067 
Q 1603 3256 1881 3256 
Q 2081 3256 2188 3213 
L 2188 2681 
z
" transform="scale(0.015625)"/>
       <path id="SegoeUI-74" d="M 2003 31 
Q 1822 -69 1525 -69 
Q 684 -69 684 869 
L 684 2763 
L 134 2763 
L 134 3200 
L 684 3200 
L 684 3981 
L 1197 4147 
L 1197 3200 
L 2003 3200 
L 2003 2763 
L 1197 2763 
L 1197 959 
Q 1197 638 1306 500 
Q 1416 363 1669 363 
Q 1863 363 2003 469 
L 2003 31 
z
" transform="scale(0.015625)"/>
       <path id="SegoeUI-68" d="M 3175 0 
L 2663 0 
L 2663 1844 
Q 2663 2844 1919 2844 
Q 1544 2844 1287 2555 
Q 1031 2266 1031 1813 
L 1031 0 
L 519 0 
L 519 4738 
L 1031 4738 
L 1031 2669 
L 1044 2669 
Q 1413 3275 2094 3275 
Q 3175 3275 3175 1972 
L 3175 0 
z
" transform="scale(0.015625)"/>
       <path id="SegoeUI-63" d="M 2700 147 
Q 2331 -75 1825 -75 
Q 1141 -75 720 370 
Q 300 816 300 1525 
Q 300 2316 753 2795 
Q 1206 3275 1963 3275 
Q 2384 3275 2706 3119 
L 2706 2594 
Q 2350 2844 1944 2844 
Q 1453 2844 1139 2492 
Q 825 2141 825 1569 
Q 825 1006 1120 681 
Q 1416 356 1913 356 
Q 2331 356 2700 634 
L 2700 147 
z
" transform="scale(0.015625)"/>
       <path id="SegoeUI-75" d="M 3106 0 
L 2594 0 
L 2594 506 
L 2581 506 
Q 2263 -75 1594 -75 
Q 450 -75 450 1288 
L 450 3200 
L 959 3200 
L 959 1369 
Q 959 356 1734 356 
Q 2109 356 2351 632 
Q 2594 909 2594 1356 
L 2594 3200 
L 3106 3200 
L 3106 0 
z
" transform="scale(0.015625)"/>
       <path id="SegoeUI-28" d="M 1863 -1019 
L 1406 -1019 
Q 438 88 438 1709 
Q 438 3338 1406 4481 
L 1869 4481 
Q 888 3294 888 1716 
Q 888 150 1863 -1019 
z
" transform="scale(0.015625)"/>
       <path id="SegoeUI-70" d="M 1044 463 
L 1031 463 
L 1031 -1472 
L 519 -1472 
L 519 3200 
L 1031 3200 
L 1031 2638 
L 1044 2638 
Q 1422 3275 2150 3275 
Q 2769 3275 3116 2845 
Q 3463 2416 3463 1694 
Q 3463 891 3072 408 
Q 2681 -75 2003 -75 
Q 1381 -75 1044 463 
z
M 1031 1753 
L 1031 1306 
Q 1031 909 1289 632 
Q 1547 356 1944 356 
Q 2409 356 2673 712 
Q 2938 1069 2938 1703 
Q 2938 2238 2691 2541 
Q 2444 2844 2022 2844 
Q 1575 2844 1303 2533 
Q 1031 2222 1031 1753 
z
" transform="scale(0.015625)"/>
       <path id="SegoeUI-29" d="M 531 -1019 
L 75 -1019 
Q 1050 150 1050 1716 
Q 1050 3294 69 4481 
L 531 4481 
Q 1506 3338 1506 1709 
Q 1506 88 531 -1019 
z
" transform="scale(0.015625)"/>
      </defs>
      <use xlink:href="#SegoeUI-47"/>
      <use xlink:href="#SegoeUI-61" x="68.603516"/>
      <use xlink:href="#SegoeUI-69" x="119.482422"/>
      <use xlink:href="#SegoeUI-6e" x="143.701172"/>
      <use xlink:href="#SegoeUI-20" x="200.292969"/>
      <use xlink:href="#SegoeUI-6f" x="227.685547"/>
      <use xlink:href="#SegoeUI-76" x="286.279297"/>
      <use xlink:href="#SegoeUI-65" x="333.554688"/>
      <use xlink:href="#SegoeUI-72" x="385.849609"/>
      <use xlink:href="#SegoeUI-20" x="420.615234"/>
      <use xlink:href="#SegoeUI-74" x="448.007812"/>
      <use xlink:href="#SegoeUI-68" x="481.894531"/>
      <use xlink:href="#SegoeUI-65" x="538.486328"/>
      <use xlink:href="#SegoeUI-20" x="590.78125"/>
      <use xlink:href="#SegoeUI-63" x="618.173828"/>
      <use xlink:href="#SegoeUI-75" x="664.365234"/>
      <use xlink:href="#SegoeUI-72" x="720.957031"/>
      <use xlink:href="#SegoeUI-76" x="759.722656"/>
      <use xlink:href="#SegoeUI-65" x="806.998047"/>
      <use xlink:href="#SegoeUI-20" x="859.292969"/>
      <use xlink:href="#SegoeUI-28" x="886.685547"/>
      <use xlink:href="#SegoeUI-70" x="916.861328"/>
      <use xlink:href="#SegoeUI-70" x="975.650391"/>
      <use xlink:href="#SegoeUI-29" x="1034.439453"/>
     </g>
    </g>
   </g>
   <g id="matplotlib.axis_2">
    <g id="ytick_1">
     <g id="line2d_9"/>
     <g id="text_6">
      <!-- No reference data -->
      <g style="fill: #52514e" transform="translate(94.22905 457.08375) scale(0.24 -0.24)">
       <defs>
        <path id="SegoeUI-4e" d="M 4200 0 
L 3556 0 
L 1250 3572 
Q 1163 3706 1106 3853 
L 1088 3853 
Q 1113 3709 1113 3238 
L 1113 0 
L 588 0 
L 588 4481 
L 1269 4481 
L 3513 966 
Q 3653 747 3694 666 
L 3706 666 
Q 3675 859 3675 1325 
L 3675 4481 
L 4200 4481 
L 4200 0 
z
" transform="scale(0.015625)"/>
        <path id="SegoeUI-66" d="M 2100 4288 
Q 1950 4372 1759 4372 
Q 1222 4372 1222 3694 
L 1222 3200 
L 1972 3200 
L 1972 2763 
L 1222 2763 
L 1222 0 
L 713 0 
L 713 2763 
L 166 2763 
L 166 3200 
L 713 3200 
L 713 3719 
Q 713 4222 1003 4514 
Q 1294 4806 1728 4806 
Q 1963 4806 2100 4750 
L 2100 4288 
z
" transform="scale(0.015625)"/>
        <path id="SegoeUI-64" d="M 3250 0 
L 2738 0 
L 2738 544 
L 2725 544 
Q 2369 -75 1625 -75 
Q 1022 -75 661 354 
Q 300 784 300 1525 
Q 300 2319 700 2797 
Q 1100 3275 1766 3275 
Q 2425 3275 2725 2756 
L 2738 2756 
L 2738 4738 
L 3250 4738 
L 3250 0 
z
M 2738 1447 
L 2738 1919 
Q 2738 2306 2481 2575 
Q 2225 2844 1831 2844 
Q 1363 2844 1094 2500 
Q 825 2156 825 1550 
Q 825 997 1083 676 
Q 1341 356 1775 356 
Q 2203 356 2470 665 
Q 2738 975 2738 1447 
z
" transform="scale(0.015625)"/>
       </defs>
       <use xlink:href="#SegoeUI-4e"/>
       <use xlink:href="#SegoeUI-6f" x="74.804688"/>
       <use xlink:href="#SegoeUI-20" x="133.398438"/>
       <use xlink:href="#SegoeUI-72" x="160.791016"/>
       <use xlink:href="#SegoeUI-65" x="194.181641"/>
       <use xlink:href="#SegoeUI-66" x="246.476562"/>
       <use xlink:href="#SegoeUI-65" x="277.775391"/>
       <use xlink:href="#SegoeUI-72" x="330.070312"/>
       <use xlink:href="#SegoeUI-65" x="363.460938"/>
       <use xlink:href="#SegoeUI-6e" x="415.755859"/>
       <use xlink:href="#SegoeUI-63" x="472.347656"/>
       <use xlink:href="#SegoeUI-65" x="518.539062"/>
       <use xlink:href="#SegoeUI-20" x="570.833984"/>
       <use xlink:href="#SegoeUI-64" x="598.226562"/>
       <use xlink:href="#SegoeUI-61" x="657.113281"/>
       <use xlink:href="#SegoeUI-74" x="707.992188"/>
       <use xlink:href="#SegoeUI-61" x="741.878906"/>
      </g>
     </g>
    </g>
    <g id="ytick_2">
     <g id="line2d_10"/>
     <g id="text_7">
      <!-- Values shuffled -->
      <g style="fill: #52514e" transform="translate(125.51155 392.28375) scale(0.24 -0.24)">
       <defs>
        <path id="SegoeUI-56" d="M 3919 4481 
L 2259 0 
L 1681 0 
L 56 4481 
L 641 4481 
L 1881 928 
Q 1941 756 1972 531 
L 1984 531 
Q 2009 719 2088 934 
L 3353 4481 
L 3919 4481 
z
" transform="scale(0.015625)"/>
        <path id="SegoeUI-6c" d="M 1031 0 
L 519 0 
L 519 4738 
L 1031 4738 
L 1031 0 
z
" transform="scale(0.015625)"/>
        <path id="SegoeUI-73" d="M 325 116 
L 325 666 
Q 744 356 1247 356 
Q 1922 356 1922 806 
Q 1922 934 1864 1023 
Q 1806 1113 1707 1181 
Q 1609 1250 1476 1304 
Q 1344 1359 1191 1419 
Q 978 1503 817 1589 
Q 656 1675 548 1783 
Q 441 1891 386 2028 
Q 331 2166 331 2350 
Q 331 2575 434 2748 
Q 538 2922 709 3039 
Q 881 3156 1101 3215 
Q 1322 3275 1556 3275 
Q 1972 3275 2300 3131 
L 2300 2613 
Q 1947 2844 1488 2844 
Q 1344 2844 1228 2811 
Q 1113 2778 1030 2718 
Q 947 2659 901 2576 
Q 856 2494 856 2394 
Q 856 2269 901 2184 
Q 947 2100 1034 2034 
Q 1122 1969 1247 1916 
Q 1372 1863 1531 1800 
Q 1744 1719 1912 1633 
Q 2081 1547 2200 1439 
Q 2319 1331 2383 1190 
Q 2447 1050 2447 856 
Q 2447 619 2342 444 
Q 2238 269 2063 153 
Q 1888 38 1659 -18 
Q 1431 -75 1181 -75 
Q 688 -75 325 116 
z
" transform="scale(0.015625)"/>
       </defs>
       <use xlink:href="#SegoeUI-56"/>
       <use xlink:href="#SegoeUI-61" x="54.984375"/>
       <use xlink:href="#SegoeUI-6c" x="105.863281"/>
       <use xlink:href="#SegoeUI-75" x="130.082031"/>
       <use xlink:href="#SegoeUI-65" x="186.673828"/>
       <use xlink:href="#SegoeUI-73" x="238.96875"/>
       <use xlink:href="#SegoeUI-20" x="281.400391"/>
       <use xlink:href="#SegoeUI-73" x="308.792969"/>
       <use xlink:href="#SegoeUI-68" x="351.224609"/>
       <use xlink:href="#SegoeUI-75" x="407.816406"/>
       <use xlink:href="#SegoeUI-66" x="464.408203"/>
       <use xlink:href="#SegoeUI-66" x="495.707031"/>
       <use xlink:href="#SegoeUI-6c" x="527.005859"/>
       <use xlink:href="#SegoeUI-65" x="551.224609"/>
       <use xlink:href="#SegoeUI-64" x="603.519531"/>
      </g>
     </g>
    </g>
    <g id="ytick_3">
     <g id="line2d_11"/>
     <g id="text_8">
      <!-- Ranges shifted -->
      <g style="fill: #52514e" transform="translate(128.75155 327.61125) scale(0.24 -0.24)">
       <defs>
        <path id="SegoeUI-52" d="M 3800 0 
L 3175 0 
L 2425 1256 
Q 2322 1431 2225 1554 
Q 2128 1678 2026 1756 
Q 1925 1834 1808 1870 
Q 1691 1906 1544 1906 
L 1113 1906 
L 1113 0 
L 588 0 
L 588 4481 
L 1925 4481 
Q 2219 4481 2467 4407 
Q 2716 4334 2898 4184 
Q 3081 4034 3184 3811 
Q 3288 3588 3288 3288 
Q 3288 3053 3217 2858 
Q 3147 2663 3017 2509 
Q 2888 2356 2705 2248 
Q 2522 2141 2294 2081 
L 2294 2069 
Q 2406 2019 2489 1955 
Q 2572 1891 2647 1803 
Q 2722 1716 2795 1605 
Q 2869 1494 2959 1347 
L 3800 0 
z
M 1113 4006 
L 1113 2381 
L 1825 2381 
Q 2022 2381 2189 2440 
Q 2356 2500 2478 2611 
Q 2600 2722 2669 2883 
Q 2738 3044 2738 3244 
Q 2738 3603 2505 3804 
Q 2272 4006 1831 4006 
L 1113 4006 
z
" transform="scale(0.015625)"/>
        <path id="SegoeUI-67" d="M 3250 256 
Q 3250 -1506 1563 -1506 
Q 969 -1506 525 -1281 
L 525 -769 
Q 1066 -1069 1556 -1069 
Q 2738 -1069 2738 188 
L 2738 538 
L 2725 538 
Q 2359 -75 1625 -75 
Q 1028 -75 664 351 
Q 300 778 300 1497 
Q 300 2313 692 2794 
Q 1084 3275 1766 3275 
Q 2413 3275 2725 2756 
L 2738 2756 
L 2738 3200 
L 3250 3200 
L 3250 256 
z
M 2738 1447 
L 2738 1919 
Q 2738 2300 2480 2572 
Q 2222 2844 1838 2844 
Q 1363 2844 1094 2498 
Q 825 2153 825 1531 
Q 825 997 1083 676 
Q 1341 356 1766 356 
Q 2197 356 2467 662 
Q 2738 969 2738 1447 
z
" transform="scale(0.015625)"/>
       </defs>
       <use xlink:href="#SegoeUI-52"/>
       <use xlink:href="#SegoeUI-61" x="59.814453"/>
       <use xlink:href="#SegoeUI-6e" x="110.693359"/>
       <use xlink:href="#SegoeUI-67" x="167.285156"/>
       <use xlink:href="#SegoeUI-65" x="226.171875"/>
       <use xlink:href="#SegoeUI-73" x="278.466797"/>
       <use xlink:href="#SegoeUI-20" x="320.898438"/>
       <use xlink:href="#SegoeUI-73" x="348.291016"/>
       <use xlink:href="#SegoeUI-68" x="390.722656"/>
       <use xlink:href="#SegoeUI-69" x="447.314453"/>
       <use xlink:href="#SegoeUI-66" x="471.533203"/>
       <use xlink:href="#SegoeUI-74" x="504.582031"/>
       <use xlink:href="#SegoeUI-65" x="537.71875"/>
       <use xlink:href="#SegoeUI-64" x="590.013672"/>
      </g>
     </g>
    </g>
    <g id="ytick_4">
     <g id="line2d_12"/>
     <g id="text_9">
      <!-- Rows reordered -->
      <g style="fill: #52514e" transform="translate(118.6378 262.68375) scale(0.24 -0.24)">
       <defs>
        <path id="SegoeUI-77" d="M 4550 3200 
L 3591 0 
L 3059 0 
L 2400 2291 
Q 2363 2422 2350 2588 
L 2338 2588 
Q 2328 2475 2272 2297 
L 1556 0 
L 1044 0 
L 75 3200 
L 613 3200 
L 1275 794 
Q 1306 684 1319 506 
L 1344 506 
Q 1353 644 1400 800 
L 2138 3200 
L 2606 3200 
L 3269 788 
Q 3300 672 3316 500 
L 3341 500 
Q 3347 622 3394 788 
L 4044 3200 
L 4550 3200 
z
" transform="scale(0.015625)"/>
       </defs>
       <use xlink:href="#SegoeUI-52"/>
       <use xlink:href="#SegoeUI-6f" x="56.939453"/>
       <use xlink:href="#SegoeUI-77" x="115.533203"/>
       <use xlink:href="#SegoeUI-73" x="187.798828"/>
       <use xlink:href="#SegoeUI-20" x="230.230469"/>
       <use xlink:href="#SegoeUI-72" x="257.623047"/>
       <use xlink:href="#SegoeUI-65" x="291.013672"/>
       <use xlink:href="#SegoeUI-6f" x="343.308594"/>
       <use xlink:href="#SegoeUI-72" x="401.902344"/>
       <use xlink:href="#SegoeUI-64" x="435.292969"/>
       <use xlink:href="#SegoeUI-65" x="494.179688"/>
       <use xlink:href="#SegoeUI-72" x="546.474609"/>
       <use xlink:href="#SegoeUI-65" x="579.865234"/>
       <use xlink:href="#SegoeUI-64" x="632.160156"/>
      </g>
     </g>
    </g>
    <g id="ytick_5">
     <g id="line2d_13"/>
     <g id="text_10">
      <!-- No identifying details -->
      <g style="fill: #52514e" transform="translate(57.41905 198.01125) scale(0.24 -0.24)">
       <defs>
        <path id="SegoeUI-79" d="M 3066 3200 
L 1594 -513 
Q 1200 -1506 488 -1506 
Q 288 -1506 153 -1466 
L 153 -1006 
Q 319 -1063 456 -1063 
Q 844 -1063 1038 -600 
L 1294 6 
L 44 3200 
L 613 3200 
L 1478 738 
Q 1494 691 1544 494 
L 1563 494 
Q 1578 569 1625 731 
L 2534 3200 
L 3066 3200 
z
" transform="scale(0.015625)"/>
       </defs>
       <use xlink:href="#SegoeUI-4e"/>
       <use xlink:href="#SegoeUI-6f" x="74.804688"/>
       <use xlink:href="#SegoeUI-20" x="133.398438"/>
       <use xlink:href="#SegoeUI-69" x="160.791016"/>
       <use xlink:href="#SegoeUI-64" x="185.009766"/>
       <use xlink:href="#SegoeUI-65" x="243.896484"/>
       <use xlink:href="#SegoeUI-6e" x="296.191406"/>
       <use xlink:href="#SegoeUI-74" x="352.783203"/>
       <use xlink:href="#SegoeUI-69" x="386.669922"/>
       <use xlink:href="#SegoeUI-66" x="410.888672"/>
       <use xlink:href="#SegoeUI-79" x="443.8125"/>
       <use xlink:href="#SegoeUI-69" x="492.201172"/>
       <use xlink:href="#SegoeUI-6e" x="516.419922"/>
       <use xlink:href="#SegoeUI-67" x="573.011719"/>
       <use xlink:href="#SegoeUI-20" x="631.898438"/>
       <use xlink:href="#SegoeUI-64" x="659.291016"/>
       <use xlink:href="#SegoeUI-65" x="718.177734"/>
       <use xlink:href="#SegoeUI-74" x="770.472656"/>
       <use xlink:href="#SegoeUI-61" x="804.359375"/>
       <use xlink:href="#SegoeUI-69" x="855.238281"/>
       <use xlink:href="#SegoeUI-6c" x="879.457031"/>
       <use xlink:href="#SegoeUI-73" x="903.675781"/>
      </g>
     </g>
    </g>
    <g id="ytick_6">
     <g id="line2d_14"/>
     <g id="text_11">
      <!-- As run -->
      <g style="fill: #52514e" transform="translate(216.7453 133.08375) scale(0.24 -0.24)">
       <defs>
        <path id="SegoeUI-41" d="M 4056 0 
L 3475 0 
L 3000 1256 
L 1100 1256 
L 653 0 
L 69 0 
L 1788 4481 
L 2331 4481 
L 4056 0 
z
M 2828 1728 
L 2125 3638 
Q 2091 3731 2056 3938 
L 2044 3938 
Q 2013 3747 1972 3638 
L 1275 1728 
L 2828 1728 
z
" transform="scale(0.015625)"/>
       </defs>
       <use xlink:href="#SegoeUI-41"/>
       <use xlink:href="#SegoeUI-73" x="64.501953"/>
       <use xlink:href="#SegoeUI-20" x="106.933594"/>
       <use xlink:href="#SegoeUI-72" x="134.326172"/>
       <use xlink:href="#SegoeUI-75" x="169.091797"/>
       <use xlink:href="#SegoeUI-6e" x="225.683594"/>
      </g>
     </g>
    </g>
   </g>
   <g id="LineCollection_1">
    <path d="M 304.574204 448.2 
L 443.081755 448.2 
" clip-path="url(#p709938adb2)" style="fill: none; stroke: #eb6834; stroke-width: 3"/>
    <path d="M 429.616261 383.4 
L 532.212207 383.4 
" clip-path="url(#p709938adb2)" style="fill: none; stroke: #eb6834; stroke-width: 3"/>
    <path d="M 588.049922 318.6 
L 636.202276 318.6 
" clip-path="url(#p709938adb2)" style="fill: none; stroke: #2a78d6; stroke-width: 3"/>
    <path d="M 582.408378 253.8 
L 623.895957 253.8 
" clip-path="url(#p709938adb2)" style="fill: none; stroke: #2a78d6; stroke-width: 3"/>
    <path d="M 577.878589 189 
L 623.825026 189 
" clip-path="url(#p709938adb2)" style="fill: none; stroke: #2a78d6; stroke-width: 3"/>
    <path d="M 586.401082 124.2 
L 632.566057 124.2 
" clip-path="url(#p709938adb2)" style="fill: none; stroke: #2a78d6; stroke-width: 3"/>
   </g>
   <g id="line2d_15">
    <path d="M 576.80387 464.4 
L 576.80387 108 
" clip-path="url(#p709938adb2)" style="fill: none; stroke: #52514e; stroke-linecap: round"/>
   </g>
   <g id="patch_3">
    <path d="M 287.9928 464.4 
L 652.78368 464.4 
" style="fill: none; stroke: #c3c2b7; stroke-linejoin: miter; stroke-linecap: square"/>
   </g>
   <g id="PathCollection_1">
    <defs>
     <path id="C0_0_02b6ab4d33" d="M 0 6.123724 
C 1.624031 6.123724 3.181764 5.47849 4.330127 4.330127 
C 5.47849 3.181764 6.123724 1.624031 6.123724 -0 
C 6.123724 -1.624031 5.47849 -3.181764 4.330127 -4.330127 
C 3.181764 -5.47849 1.624031 -6.123724 0 -6.123724 
C -1.624031 -6.123724 -3.181764 -5.47849 -4.330127 -4.330127 
C -5.47849 -3.181764 -6.123724 -1.624031 -6.123724 0 
C -6.123724 1.624031 -5.47849 3.181764 -4.330127 4.330127 
C -3.181764 5.47849 -1.624031 6.123724 0 6.123724 
z
"/>
    </defs>
    <g clip-path="url(#p709938adb2)">
     <use xlink:href="#C0_0_02b6ab4d33" x="369.725931" y="448.2" style="fill: #eb6834; stroke: #fcfcfb; stroke-width: 2"/>
    </g>
    <g clip-path="url(#p709938adb2)">
     <use xlink:href="#C0_0_02b6ab4d33" x="481.93513" y="383.4" style="fill: #eb6834; stroke: #fcfcfb; stroke-width: 2"/>
    </g>
    <g clip-path="url(#p709938adb2)">
     <use xlink:href="#C0_0_02b6ab4d33" x="610.76495" y="318.6" style="fill: #2a78d6; stroke: #fcfcfb; stroke-width: 2"/>
    </g>
    <g clip-path="url(#p709938adb2)">
     <use xlink:href="#C0_0_02b6ab4d33" x="602.501222" y="253.8" style="fill: #2a78d6; stroke: #fcfcfb; stroke-width: 2"/>
    </g>
    <g clip-path="url(#p709938adb2)">
     <use xlink:href="#C0_0_02b6ab4d33" x="599.707231" y="189" style="fill: #2a78d6; stroke: #fcfcfb; stroke-width: 2"/>
    </g>
    <g clip-path="url(#p709938adb2)">
     <use xlink:href="#C0_0_02b6ab4d33" x="608.402698" y="124.2" style="fill: #2a78d6; stroke: #fcfcfb; stroke-width: 2"/>
    </g>
   </g>
   <g id="legend_1">
    <g id="line2d_16">
     <path d="M 681.679498 138.9675 
L 705.679498 138.9675 
L 729.679498 138.9675 
" style="fill: none; stroke: #2a78d6; stroke-width: 3; stroke-linecap: round"/>
     <defs>
      <path id="m4349655d45" d="M 0 3 
C 0.795609 3 1.55874 2.683901 2.12132 2.12132 
C 2.683901 1.55874 3 0.795609 3 0 
C 3 -0.795609 2.683901 -1.55874 2.12132 -2.12132 
C 1.55874 -2.683901 0.795609 -3 0 -3 
C -0.795609 -3 -1.55874 -2.683901 -2.12132 -2.12132 
C -2.683901 -1.55874 -3 -0.795609 -3 0 
C -3 0.795609 -2.683901 1.55874 -2.12132 2.12132 
C -1.55874 2.683901 -0.795609 3 0 3 
z
" style="stroke: #2a78d6"/>
     </defs>
     <g>
      <use xlink:href="#m4349655d45" x="705.679498" y="138.9675" style="fill: #2a78d6; stroke: #2a78d6"/>
     </g>
    </g>
    <g id="text_12">
     <!-- Same data -->
     <g style="fill: #0b0b0b" transform="translate(748.879498 147.3675) scale(0.24 -0.24)">
      <defs>
       <path id="SegoeUI-53" d="M 378 181 
L 378 800 
Q 484 706 632 631 
Q 781 556 945 504 
Q 1109 453 1275 425 
Q 1441 397 1581 397 
Q 2066 397 2305 576 
Q 2544 756 2544 1094 
Q 2544 1275 2464 1409 
Q 2384 1544 2243 1655 
Q 2103 1766 1911 1867 
Q 1719 1969 1497 2081 
Q 1263 2200 1059 2322 
Q 856 2444 706 2591 
Q 556 2738 470 2923 
Q 384 3109 384 3359 
Q 384 3666 518 3892 
Q 653 4119 872 4266 
Q 1091 4413 1370 4484 
Q 1650 4556 1941 4556 
Q 2603 4556 2906 4397 
L 2906 3806 
Q 2509 4081 1888 4081 
Q 1716 4081 1544 4045 
Q 1372 4009 1237 3928 
Q 1103 3847 1018 3719 
Q 934 3591 934 3406 
Q 934 3234 998 3109 
Q 1063 2984 1188 2881 
Q 1313 2778 1492 2681 
Q 1672 2584 1906 2469 
Q 2147 2350 2362 2219 
Q 2578 2088 2740 1928 
Q 2903 1769 2998 1575 
Q 3094 1381 3094 1131 
Q 3094 800 2964 570 
Q 2834 341 2614 197 
Q 2394 53 2106 -11 
Q 1819 -75 1500 -75 
Q 1394 -75 1237 -58 
Q 1081 -41 918 -8 
Q 756 25 611 73 
Q 466 122 378 181 
z
" transform="scale(0.015625)"/>
       <path id="SegoeUI-6d" d="M 5063 0 
L 4550 0 
L 4550 1838 
Q 4550 2369 4386 2606 
Q 4222 2844 3834 2844 
Q 3506 2844 3276 2544 
Q 3047 2244 3047 1825 
L 3047 0 
L 2534 0 
L 2534 1900 
Q 2534 2844 1806 2844 
Q 1469 2844 1250 2561 
Q 1031 2278 1031 1825 
L 1031 0 
L 519 0 
L 519 3200 
L 1031 3200 
L 1031 2694 
L 1044 2694 
Q 1384 3275 2038 3275 
Q 2366 3275 2609 3092 
Q 2853 2909 2944 2613 
Q 3300 3275 4006 3275 
Q 5063 3275 5063 1972 
L 5063 0 
z
" transform="scale(0.015625)"/>
      </defs>
      <use xlink:href="#SegoeUI-53"/>
      <use xlink:href="#SegoeUI-61" x="53.125"/>
      <use xlink:href="#SegoeUI-6d" x="104.003906"/>
      <use xlink:href="#SegoeUI-65" x="190.136719"/>
      <use xlink:href="#SegoeUI-20" x="242.431641"/>
      <use xlink:href="#SegoeUI-64" x="269.824219"/>
      <use xlink:href="#SegoeUI-61" x="328.710938"/>
      <use xlink:href="#SegoeUI-74" x="379.589844"/>
      <use xlink:href="#SegoeUI-61" x="413.476562"/>
     </g>
    </g>
    <g id="line2d_17">
     <path d="M 681.679498 174.255 
L 705.679498 174.255 
L 729.679498 174.255 
" style="fill: none; stroke: #eb6834; stroke-width: 3; stroke-linecap: round"/>
     <defs>
      <path id="m9419b4aa41" d="M 0 3 
C 0.795609 3 1.55874 2.683901 2.12132 2.12132 
C 2.683901 1.55874 3 0.795609 3 0 
C 3 -0.795609 2.683901 -1.55874 2.12132 -2.12132 
C 1.55874 -2.683901 0.795609 -3 0 -3 
C -0.795609 -3 -1.55874 -2.683901 -2.12132 -2.12132 
C -2.683901 -1.55874 -3 -0.795609 -3 0 
C -3 0.795609 -2.683901 1.55874 -2.12132 2.12132 
C -1.55874 2.683901 -0.795609 3 0 3 
z
" style="stroke: #eb6834"/>
     </defs>
     <g>
      <use xlink:href="#m9419b4aa41" x="705.679498" y="174.255" style="fill: #eb6834; stroke: #eb6834"/>
     </g>
    </g>
    <g id="text_13">
     <!-- Data taken away -->
     <g style="fill: #0b0b0b" transform="translate(748.879498 182.655) scale(0.24 -0.24)">
      <defs>
       <path id="SegoeUI-44" d="M 588 0 
L 588 4481 
L 1825 4481 
Q 4194 4481 4194 2297 
Q 4194 1259 3536 629 
Q 2878 0 1775 0 
L 588 0 
z
M 1113 4006 
L 1113 475 
L 1781 475 
Q 2663 475 3153 947 
Q 3644 1419 3644 2284 
Q 3644 4006 1813 4006 
L 1113 4006 
z
" transform="scale(0.015625)"/>
       <path id="SegoeUI-6b" d="M 3175 0 
L 2456 0 
L 1044 1538 
L 1031 1538 
L 1031 0 
L 519 0 
L 519 4738 
L 1031 4738 
L 1031 1734 
L 1044 1734 
L 2388 3200 
L 3059 3200 
L 1575 1656 
L 3175 0 
z
" transform="scale(0.015625)"/>
      </defs>
      <use xlink:href="#SegoeUI-44"/>
      <use xlink:href="#SegoeUI-61" x="70.117188"/>
      <use xlink:href="#SegoeUI-74" x="120.996094"/>
      <use xlink:href="#SegoeUI-61" x="154.882812"/>
      <use xlink:href="#SegoeUI-20" x="205.761719"/>
      <use xlink:href="#SegoeUI-74" x="233.154297"/>
      <use xlink:href="#SegoeUI-61" x="267.041016"/>
      <use xlink:href="#SegoeUI-6b" x="317.919922"/>
      <use xlink:href="#SegoeUI-65" x="365.626953"/>
      <use xlink:href="#SegoeUI-6e" x="417.921875"/>
      <use xlink:href="#SegoeUI-20" x="474.513672"/>
      <use xlink:href="#SegoeUI-61" x="501.90625"/>
      <use xlink:href="#SegoeUI-77" x="552.785156"/>
      <use xlink:href="#SegoeUI-61" x="625.050781"/>
      <use xlink:href="#SegoeUI-79" x="675.929688"/>
     </g>
    </g>
   </g>
  </g>
  <g id="text_14">
   <!-- Jev's edge holds in every way we asked -->
   <g style="fill: #0b0b0b" transform="translate(28.79928 45.02875) scale(0.28 -0.28)">
    <defs>
     <path id="SegoeUI-Semibold-4a" d="M 2025 1606 
Q 2025 809 1631 367 
Q 1238 -75 581 -75 
Q 275 -75 78 -3 
L 78 697 
Q 256 575 538 575 
Q 1281 575 1281 1725 
L 1281 4481 
L 2025 4481 
L 2025 1606 
z
" transform="scale(0.015625)"/>
     <path id="SegoeUI-Semibold-65" d="M 3181 1403 
L 1000 1403 
Q 1013 959 1273 718 
Q 1534 478 1991 478 
Q 2503 478 2931 784 
L 2931 200 
Q 2494 -75 1775 -75 
Q 1069 -75 667 361 
Q 266 797 266 1588 
Q 266 2334 708 2804 
Q 1150 3275 1806 3275 
Q 2463 3275 2822 2853 
Q 3181 2431 3181 1681 
L 3181 1403 
z
M 2481 1916 
Q 2478 2306 2297 2523 
Q 2116 2741 1797 2741 
Q 1484 2741 1267 2512 
Q 1050 2284 1000 1916 
L 2481 1916 
z
" transform="scale(0.015625)"/>
     <path id="SegoeUI-Semibold-76" d="M 3228 3200 
L 1991 0 
L 1206 0 
L 28 3200 
L 816 3200 
L 1525 963 
Q 1606 716 1625 531 
L 1634 531 
Q 1663 763 1722 950 
L 2466 3200 
L 3228 3200 
z
" transform="scale(0.015625)"/>
     <path id="SegoeUI-Semibold-27" d="M 1113 4506 
L 1113 3109 
L 541 3109 
L 541 4506 
L 1113 4506 
z
" transform="scale(0.015625)"/>
     <path id="SegoeUI-Semibold-73" d="M 272 100 
L 272 772 
Q 678 463 1169 463 
Q 1825 463 1825 850 
Q 1825 959 1769 1036 
Q 1713 1113 1617 1172 
Q 1522 1231 1392 1278 
Q 1263 1325 1103 1384 
Q 906 1463 748 1550 
Q 591 1638 486 1748 
Q 381 1859 328 2000 
Q 275 2141 275 2328 
Q 275 2559 384 2736 
Q 494 2913 678 3033 
Q 863 3153 1097 3214 
Q 1331 3275 1581 3275 
Q 2025 3275 2375 3141 
L 2375 2506 
Q 2038 2738 1600 2738 
Q 1463 2738 1352 2709 
Q 1241 2681 1162 2631 
Q 1084 2581 1040 2511 
Q 997 2441 997 2356 
Q 997 2253 1040 2181 
Q 1084 2109 1170 2054 
Q 1256 2000 1376 1954 
Q 1497 1909 1653 1856 
Q 1859 1772 2023 1684 
Q 2188 1597 2303 1486 
Q 2419 1375 2481 1229 
Q 2544 1084 2544 884 
Q 2544 641 2431 459 
Q 2319 278 2131 159 
Q 1944 41 1698 -17 
Q 1453 -75 1181 -75 
Q 656 -75 272 100 
z
" transform="scale(0.015625)"/>
     <path id="SegoeUI-Semibold-20" transform="scale(0.015625)"/>
     <path id="SegoeUI-Semibold-64" d="M 3381 0 
L 2656 0 
L 2656 544 
L 2644 544 
Q 2294 -75 1566 -75 
Q 975 -75 620 354 
Q 266 784 266 1525 
Q 266 2319 658 2797 
Q 1050 3275 1703 3275 
Q 2350 3275 2644 2756 
L 2656 2756 
L 2656 4738 
L 3381 4738 
L 3381 0 
z
M 2666 1463 
L 2666 1881 
Q 2666 2222 2444 2459 
Q 2222 2697 1878 2697 
Q 1472 2697 1239 2394 
Q 1006 2091 1006 1553 
Q 1006 1066 1229 783 
Q 1453 500 1831 500 
Q 2203 500 2434 773 
Q 2666 1047 2666 1463 
z
" transform="scale(0.015625)"/>
     <path id="SegoeUI-Semibold-67" d="M 3384 256 
Q 3384 -1506 1613 -1506 
Q 988 -1506 522 -1297 
L 522 -634 
Q 1047 -934 1519 -934 
Q 2659 -934 2659 188 
L 2659 538 
L 2647 538 
Q 2288 -75 1566 -75 
Q 981 -75 623 351 
Q 266 778 266 1497 
Q 266 2313 650 2794 
Q 1034 3275 1706 3275 
Q 2341 3275 2647 2756 
L 2659 2756 
L 2659 3200 
L 3384 3200 
L 3384 256 
z
M 2666 1466 
L 2666 1881 
Q 2666 2219 2442 2458 
Q 2219 2697 1884 2697 
Q 1472 2697 1239 2392 
Q 1006 2088 1006 1541 
Q 1006 1069 1229 786 
Q 1453 503 1822 503 
Q 2197 503 2431 773 
Q 2666 1044 2666 1466 
z
" transform="scale(0.015625)"/>
     <path id="SegoeUI-Semibold-68" d="M 3316 0 
L 2591 0 
L 2591 1750 
Q 2591 2700 1956 2700 
Q 1638 2700 1419 2425 
Q 1200 2150 1200 1722 
L 1200 0 
L 472 0 
L 472 4738 
L 1200 4738 
L 1200 2669 
L 1213 2669 
Q 1575 3275 2250 3275 
Q 3316 3275 3316 1972 
L 3316 0 
z
" transform="scale(0.015625)"/>
     <path id="SegoeUI-Semibold-6f" d="M 1891 -75 
Q 1150 -75 708 373 
Q 266 822 266 1563 
Q 266 2369 727 2822 
Q 1188 3275 1969 3275 
Q 2719 3275 3137 2834 
Q 3556 2394 3556 1613 
Q 3556 847 3104 386 
Q 2653 -75 1891 -75 
z
M 1925 2697 
Q 1500 2697 1253 2400 
Q 1006 2103 1006 1581 
Q 1006 1078 1256 789 
Q 1506 500 1925 500 
Q 2353 500 2583 784 
Q 2813 1069 2813 1594 
Q 2813 2122 2583 2409 
Q 2353 2697 1925 2697 
z
" transform="scale(0.015625)"/>
     <path id="SegoeUI-Semibold-6c" d="M 1200 0 
L 472 0 
L 472 4738 
L 1200 4738 
L 1200 0 
z
" transform="scale(0.015625)"/>
     <path id="SegoeUI-Semibold-69" d="M 838 3872 
Q 659 3872 532 3987 
Q 406 4103 406 4281 
Q 406 4459 532 4578 
Q 659 4697 838 4697 
Q 1022 4697 1150 4578 
Q 1278 4459 1278 4281 
Q 1278 4113 1150 3992 
Q 1022 3872 838 3872 
z
M 1197 0 
L 472 0 
L 472 3200 
L 1197 3200 
L 1197 0 
z
" transform="scale(0.015625)"/>
     <path id="SegoeUI-Semibold-6e" d="M 3322 0 
L 2597 0 
L 2597 1803 
Q 2597 2700 1963 2700 
Q 1631 2700 1415 2451 
Q 1200 2203 1200 1825 
L 1200 0 
L 472 0 
L 472 3200 
L 1200 3200 
L 1200 2669 
L 1213 2669 
Q 1572 3275 2250 3275 
Q 2772 3275 3047 2936 
Q 3322 2597 3322 1956 
L 3322 0 
z
" transform="scale(0.015625)"/>
     <path id="SegoeUI-Semibold-72" d="M 2328 2509 
Q 2197 2613 1950 2613 
Q 1628 2613 1412 2322 
Q 1197 2031 1197 1531 
L 1197 0 
L 472 0 
L 472 3200 
L 1197 3200 
L 1197 2541 
L 1209 2541 
Q 1316 2878 1536 3067 
Q 1756 3256 2028 3256 
Q 2225 3256 2328 3197 
L 2328 2509 
z
" transform="scale(0.015625)"/>
     <path id="SegoeUI-Semibold-79" d="M 3244 3200 
L 1800 -513 
Q 1350 -1506 538 -1506 
Q 309 -1506 156 -1466 
L 156 -863 
Q 328 -919 469 -919 
Q 875 -919 1075 -519 
L 1291 6 
L 19 3200 
L 822 3200 
L 1584 875 
Q 1597 831 1641 644 
L 1656 644 
Q 1672 716 1713 869 
L 2513 3200 
L 3244 3200 
z
" transform="scale(0.015625)"/>
     <path id="SegoeUI-Semibold-77" d="M 4775 3200 
L 3831 0 
L 3072 0 
L 2491 2169 
Q 2456 2294 2447 2450 
L 2434 2450 
Q 2428 2344 2378 2175 
L 1747 0 
L 1003 0 
L 63 3200 
L 813 3200 
L 1394 894 
Q 1422 791 1431 619 
L 1453 619 
Q 1463 750 1503 900 
L 2150 3200 
L 2831 3200 
L 3406 884 
Q 3434 775 3447 609 
L 3469 609 
Q 3475 725 3516 884 
L 4084 3200 
L 4775 3200 
z
" transform="scale(0.015625)"/>
     <path id="SegoeUI-Semibold-61" d="M 2928 0 
L 2225 0 
L 2225 500 
L 2213 500 
Q 1881 -75 1241 -75 
Q 769 -75 501 181 
Q 234 438 234 859 
Q 234 1766 1278 1916 
L 2228 2050 
Q 2228 2734 1578 2734 
Q 1006 2734 547 2341 
L 547 2975 
Q 1053 3275 1716 3275 
Q 2928 3275 2928 2081 
L 2928 0 
z
M 2228 1572 
L 1556 1478 
Q 1244 1438 1086 1327 
Q 928 1216 928 938 
Q 928 734 1073 604 
Q 1219 475 1463 475 
Q 1794 475 2011 708 
Q 2228 941 2228 1294 
L 2228 1572 
z
" transform="scale(0.015625)"/>
     <path id="SegoeUI-Semibold-6b" d="M 3375 0 
L 2456 0 
L 1213 1538 
L 1200 1538 
L 1200 0 
L 472 0 
L 472 4738 
L 1200 4738 
L 1200 1734 
L 1213 1734 
L 2388 3200 
L 3259 3200 
L 1938 1656 
L 3375 0 
z
" transform="scale(0.015625)"/>
    </defs>
    <use xlink:href="#SegoeUI-Semibold-4a"/>
    <use xlink:href="#SegoeUI-Semibold-65" x="39.648438"/>
    <use xlink:href="#SegoeUI-Semibold-76" x="92.773438"/>
    <use xlink:href="#SegoeUI-Semibold-27" x="143.505859"/>
    <use xlink:href="#SegoeUI-Semibold-73" x="165.335938"/>
    <use xlink:href="#SegoeUI-Semibold-20" x="208.451172"/>
    <use xlink:href="#SegoeUI-Semibold-65" x="235.941406"/>
    <use xlink:href="#SegoeUI-Semibold-64" x="289.066406"/>
    <use xlink:href="#SegoeUI-Semibold-67" x="349.320312"/>
    <use xlink:href="#SegoeUI-Semibold-65" x="409.574219"/>
    <use xlink:href="#SegoeUI-Semibold-20" x="462.699219"/>
    <use xlink:href="#SegoeUI-Semibold-68" x="490.189453"/>
    <use xlink:href="#SegoeUI-Semibold-6f" x="548.392578"/>
    <use xlink:href="#SegoeUI-Semibold-6c" x="608.109375"/>
    <use xlink:href="#SegoeUI-Semibold-64" x="634.232422"/>
    <use xlink:href="#SegoeUI-Semibold-73" x="694.486328"/>
    <use xlink:href="#SegoeUI-Semibold-20" x="737.601562"/>
    <use xlink:href="#SegoeUI-Semibold-69" x="765.091797"/>
    <use xlink:href="#SegoeUI-Semibold-6e" x="791.214844"/>
    <use xlink:href="#SegoeUI-Semibold-20" x="849.564453"/>
    <use xlink:href="#SegoeUI-Semibold-65" x="877.054688"/>
    <use xlink:href="#SegoeUI-Semibold-76" x="930.179688"/>
    <use xlink:href="#SegoeUI-Semibold-65" x="980.162109"/>
    <use xlink:href="#SegoeUI-Semibold-72" x="1033.287109"/>
    <use xlink:href="#SegoeUI-Semibold-79" x="1074.298828"/>
    <use xlink:href="#SegoeUI-Semibold-20" x="1125.128906"/>
    <use xlink:href="#SegoeUI-Semibold-77" x="1152.619141"/>
    <use xlink:href="#SegoeUI-Semibold-61" x="1228.253906"/>
    <use xlink:href="#SegoeUI-Semibold-79" x="1280.451172"/>
    <use xlink:href="#SegoeUI-Semibold-20" x="1331.28125"/>
    <use xlink:href="#SegoeUI-Semibold-77" x="1358.771484"/>
    <use xlink:href="#SegoeUI-Semibold-65" x="1433.90625"/>
    <use xlink:href="#SegoeUI-Semibold-20" x="1487.03125"/>
    <use xlink:href="#SegoeUI-Semibold-61" x="1514.521484"/>
    <use xlink:href="#SegoeUI-Semibold-73" x="1566.71875"/>
    <use xlink:href="#SegoeUI-Semibold-6b" x="1609.833984"/>
    <use xlink:href="#SegoeUI-Semibold-65" x="1660.574219"/>
    <use xlink:href="#SegoeUI-Semibold-64" x="1713.699219"/>
   </g>
  </g>
  <g id="text_15">
   <!-- Gain over the curve with 95% CI, 32 held-out campaigns -->
   <g style="fill: #52514e" transform="translate(28.79928 79.8675) scale(0.24 -0.24)">
    <defs>
     <path id="SegoeUI-39" d="M 3138 2509 
Q 3138 1894 3016 1414 
Q 2894 934 2659 601 
Q 2425 269 2087 95 
Q 1750 -78 1319 -78 
Q 875 -78 538 78 
L 538 569 
Q 909 359 1331 359 
Q 1634 359 1873 484 
Q 2113 609 2278 848 
Q 2444 1088 2531 1438 
Q 2619 1788 2619 2241 
L 2606 2241 
Q 2319 1663 1606 1663 
Q 1319 1663 1078 1764 
Q 838 1866 663 2052 
Q 488 2238 391 2494 
Q 294 2750 294 3059 
Q 294 3391 401 3666 
Q 509 3941 701 4139 
Q 894 4338 1158 4447 
Q 1422 4556 1734 4556 
Q 2072 4556 2333 4420 
Q 2594 4284 2772 4023 
Q 2950 3763 3044 3381 
Q 3138 3000 3138 2509 
z
M 2584 2969 
Q 2584 3228 2517 3440 
Q 2450 3653 2331 3804 
Q 2213 3956 2048 4039 
Q 1884 4122 1691 4122 
Q 1506 4122 1347 4048 
Q 1188 3975 1070 3842 
Q 953 3709 886 3526 
Q 819 3344 819 3128 
Q 819 2891 883 2703 
Q 947 2516 1065 2386 
Q 1184 2256 1351 2187 
Q 1519 2119 1722 2119 
Q 1900 2119 2058 2186 
Q 2216 2253 2333 2367 
Q 2450 2481 2517 2636 
Q 2584 2791 2584 2969 
z
" transform="scale(0.015625)"/>
     <path id="SegoeUI-35" d="M 3028 1369 
Q 3028 1041 2915 775 
Q 2803 509 2595 318 
Q 2388 128 2094 25 
Q 1800 -78 1441 -78 
Q 816 -78 513 109 
L 513 653 
Q 969 359 1447 359 
Q 1691 359 1886 431 
Q 2081 503 2218 631 
Q 2356 759 2429 940 
Q 2503 1122 2503 1338 
Q 2503 1775 2209 2023 
Q 1916 2272 1356 2272 
Q 1266 2272 1166 2269 
Q 1066 2266 966 2261 
Q 866 2256 770 2250 
Q 675 2244 597 2234 
L 750 4481 
L 2822 4481 
L 2822 4019 
L 1194 4019 
L 1103 2703 
Q 1203 2709 1315 2714 
Q 1428 2719 1516 2719 
Q 1872 2719 2153 2625 
Q 2434 2531 2629 2357 
Q 2825 2184 2926 1932 
Q 3028 1681 3028 1369 
z
" transform="scale(0.015625)"/>
     <path id="SegoeUI-25" d="M 1263 2234 
Q 800 2234 525 2539 
Q 250 2844 250 3353 
Q 250 3909 540 4229 
Q 831 4550 1325 4550 
Q 1803 4550 2067 4253 
Q 2331 3956 2331 3419 
Q 2331 2881 2036 2557 
Q 1741 2234 1263 2234 
z
M 1306 4206 
Q 1009 4206 837 3986 
Q 666 3766 666 3381 
Q 666 3003 834 2792 
Q 1003 2581 1294 2581 
Q 1588 2581 1753 2800 
Q 1919 3019 1919 3406 
Q 1919 3784 1755 3995 
Q 1591 4206 1306 4206 
z
M 4263 4481 
L 1388 -31 
L 941 -31 
L 3813 4481 
L 4263 4481 
z
M 3931 -69 
Q 3469 -69 3194 237 
Q 2919 544 2919 1050 
Q 2919 1606 3212 1929 
Q 3506 2253 3994 2253 
Q 4469 2253 4734 1953 
Q 5000 1653 5000 1113 
Q 5000 578 4704 254 
Q 4409 -69 3931 -69 
z
M 3975 1900 
Q 3675 1900 3504 1681 
Q 3334 1463 3334 1075 
Q 3334 703 3503 492 
Q 3672 281 3963 281 
Q 4256 281 4422 501 
Q 4588 722 4588 1106 
Q 4588 1488 4423 1694 
Q 4259 1900 3975 1900 
z
" transform="scale(0.015625)"/>
     <path id="SegoeUI-43" d="M 3638 188 
Q 3141 -75 2400 -75 
Q 1444 -75 869 540 
Q 294 1156 294 2156 
Q 294 3231 941 3893 
Q 1588 4556 2581 4556 
Q 3219 4556 3638 4372 
L 3638 3813 
Q 3156 4081 2575 4081 
Q 1803 4081 1323 3565 
Q 844 3050 844 2188 
Q 844 1369 1292 883 
Q 1741 397 2469 397 
Q 3144 397 3638 697 
L 3638 188 
z
" transform="scale(0.015625)"/>
     <path id="SegoeUI-49" d="M 1113 0 
L 588 0 
L 588 4481 
L 1113 4481 
L 1113 0 
z
" transform="scale(0.015625)"/>
     <path id="SegoeUI-2c" d="M 988 713 
L 488 -825 
L 122 -825 
L 488 713 
L 988 713 
z
" transform="scale(0.015625)"/>
     <path id="SegoeUI-2d" d="M 2156 1581 
L 450 1581 
L 450 1984 
L 2156 1984 
L 2156 1581 
z
" transform="scale(0.015625)"/>
    </defs>
    <use xlink:href="#SegoeUI-47"/>
    <use xlink:href="#SegoeUI-61" x="68.603516"/>
    <use xlink:href="#SegoeUI-69" x="119.482422"/>
    <use xlink:href="#SegoeUI-6e" x="143.701172"/>
    <use xlink:href="#SegoeUI-20" x="200.292969"/>
    <use xlink:href="#SegoeUI-6f" x="227.685547"/>
    <use xlink:href="#SegoeUI-76" x="286.279297"/>
    <use xlink:href="#SegoeUI-65" x="333.554688"/>
    <use xlink:href="#SegoeUI-72" x="385.849609"/>
    <use xlink:href="#SegoeUI-20" x="420.615234"/>
    <use xlink:href="#SegoeUI-74" x="448.007812"/>
    <use xlink:href="#SegoeUI-68" x="481.894531"/>
    <use xlink:href="#SegoeUI-65" x="538.486328"/>
    <use xlink:href="#SegoeUI-20" x="590.78125"/>
    <use xlink:href="#SegoeUI-63" x="618.173828"/>
    <use xlink:href="#SegoeUI-75" x="664.365234"/>
    <use xlink:href="#SegoeUI-72" x="720.957031"/>
    <use xlink:href="#SegoeUI-76" x="759.722656"/>
    <use xlink:href="#SegoeUI-65" x="806.998047"/>
    <use xlink:href="#SegoeUI-20" x="859.292969"/>
    <use xlink:href="#SegoeUI-77" x="886.685547"/>
    <use xlink:href="#SegoeUI-69" x="958.951172"/>
    <use xlink:href="#SegoeUI-74" x="983.169922"/>
    <use xlink:href="#SegoeUI-68" x="1017.056641"/>
    <use xlink:href="#SegoeUI-20" x="1073.648438"/>
    <use xlink:href="#SegoeUI-39" x="1101.041016"/>
    <use xlink:href="#SegoeUI-35" x="1154.947266"/>
    <use xlink:href="#SegoeUI-25" x="1208.853516"/>
    <use xlink:href="#SegoeUI-20" x="1290.689453"/>
    <use xlink:href="#SegoeUI-43" x="1318.082031"/>
    <use xlink:href="#SegoeUI-49" x="1379.996094"/>
    <use xlink:href="#SegoeUI-2c" x="1406.607422"/>
    <use xlink:href="#SegoeUI-20" x="1428.287109"/>
    <use xlink:href="#SegoeUI-33" x="1455.679688"/>
    <use xlink:href="#SegoeUI-32" x="1509.585938"/>
    <use xlink:href="#SegoeUI-20" x="1563.492188"/>
    <use xlink:href="#SegoeUI-68" x="1590.884766"/>
    <use xlink:href="#SegoeUI-65" x="1647.476562"/>
    <use xlink:href="#SegoeUI-6c" x="1699.771484"/>
    <use xlink:href="#SegoeUI-64" x="1723.990234"/>
    <use xlink:href="#SegoeUI-2d" x="1782.876953"/>
    <use xlink:href="#SegoeUI-6f" x="1822.867188"/>
    <use xlink:href="#SegoeUI-75" x="1881.460938"/>
    <use xlink:href="#SegoeUI-74" x="1938.052734"/>
    <use xlink:href="#SegoeUI-20" x="1971.939453"/>
    <use xlink:href="#SegoeUI-63" x="1999.332031"/>
    <use xlink:href="#SegoeUI-61" x="2045.523438"/>
    <use xlink:href="#SegoeUI-6d" x="2096.402344"/>
    <use xlink:href="#SegoeUI-70" x="2182.535156"/>
    <use xlink:href="#SegoeUI-61" x="2239.949219"/>
    <use xlink:href="#SegoeUI-69" x="2290.828125"/>
    <use xlink:href="#SegoeUI-67" x="2315.046875"/>
    <use xlink:href="#SegoeUI-6e" x="2373.933594"/>
    <use xlink:href="#SegoeUI-73" x="2430.525391"/>
   </g>
  </g>
 </g>
 <defs>
  <clipPath id="p709938adb2">
   <rect x="287.9928" y="108" width="364.79088" height="356.4"/>
  </clipPath>
 </defs>
</svg>
